# xmcd
#
# Track frame offsets:
#	150
#	30345
#	52803
#	71423
#	86389
#	110366
#	132872
#
# Disc length: 2438 seconds
#
# Revision: 0
# Processed by: cddbd v1.5.1PL0 Copyright (c) Steve Scherf et al.
# Submitted via: dBpowerAMP V4.0
#
DISCID=4a098407
DTITLE=Buoi Band - Dolcevìle
DYEAR=2004
DGENRE=
TTITLE0=Superphoenix
TTITLE1=Stato Metafisico
TTITLE2=Ansia Generalizzata
TTITLE3=Neve
TTITLE4=Vuoto D'Aria
TTITLE5=Riproduzioni Meccaniche
TTITLE6=Fanfulla
EXTD=
EXTT0=
EXTT1=
EXTT2=
EXTT3=
EXTT4=
EXTT5=
EXTT6=
PLAYORDER=
